<svg width="80" height="80" viewBox="0 0 80 80" fill="none" xmlns="http://www.w3.org/2000/svg">
<path d="M72.685 33.4717H70V33.3334H40V46.6667H58.8384C56.09 54.4284 48.705 60 40 60C28.955 60 20 51.045 20 40C20 28.955 28.955 20 40 20C45.0984 20 49.7367 21.9234 53.2684 25.065L62.6967 15.6367C56.7434 10.0884 48.78 6.66669 40 6.66669C21.5917 6.66669 6.66669 21.5917 6.66669 40C6.66669 58.4084 21.5917 73.3334 40 73.3334C58.4084 73.3334 73.3334 58.4084 73.3334 40C73.3334 37.765 73.1034 35.5834 72.685 33.4717Z" fill="#FFC107"/>
<path d="M10.51 24.485L21.4617 32.5167C24.425 25.18 31.6017 20 40 20C45.0983 20 49.7367 21.9234 53.2683 25.065L62.6967 15.6367C56.7433 10.0884 48.78 6.66669 40 6.66669C27.1967 6.66669 16.0933 13.895 10.51 24.485Z" fill="#FF3D00"/>
<path d="M40 73.3333C48.61 73.3333 56.4333 70.0383 62.3484 64.68L52.0317 55.95C48.5726 58.5806 44.3458 60.0034 40 60C31.33 60 23.9683 54.4717 21.195 46.7567L10.325 55.1316C15.8417 65.9266 27.045 73.3333 40 73.3333Z" fill="#4CAF50"/>
<path d="M72.685 33.4716H70V33.3333H40V46.6666H58.8383C57.5237 50.3607 55.1556 53.5886 52.0267 55.9516L52.0317 55.9483L62.3483 64.6783C61.6183 65.3416 73.3333 56.6666 73.3333 40C73.3333 37.765 73.1033 35.5833 72.685 33.4716Z" fill="#1976D2"/>
</svg>
