<svg width="70" height="47" viewBox="0 0 70 47" fill="none" xmlns="http://www.w3.org/2000/svg">
<path d="M32.8 9.525C25.8274 11.1657 19.8544 16.5542 16.2587 19.3922C15.2215 18.4529 14.1283 17.5743 12.9849 16.7611C7.98537 13.1921 2 12.75 2 12.75C2 12.75 3.56338 19.6743 7.687 23.4772C3.56338 27.2813 2 34.2057 2 34.2057C2 34.2057 7.98537 33.7636 12.9849 30.1946C14.1186 29.3884 15.2026 28.5174 16.2313 27.5863C19.82 30.427 25.8205 35.8289 32.8 37.475L30.6 45C36.0216 44.1037 41.4433 40.2283 43.624 38.5164C61.4 37.7438 68 26.5906 68 23.5C68 20.5438 61.4 9.25625 43.6776 8.48628C41.534 6.80794 36.067 2.903 30.6 2L32.8 9.525Z" fill="black" stroke="white" stroke-width="2.5" stroke-linejoin="round"/>
<path d="M57 23.4986C58.2151 23.4986 59.2 22.536 59.2 21.3486C59.2 20.1612 58.2151 19.1986 57 19.1986C55.785 19.1986 54.8 20.1612 54.8 21.3486C54.8 22.536 55.785 23.4986 57 23.4986Z" fill="white"/>
<path d="M51.8257 36.9375C49.4016 32.8555 48.1248 28.2197 48.1248 23.5C48.1248 18.7803 49.4016 14.1445 51.8257 10.0625" fill="black"/>
<path d="M51.8257 36.9375C49.4016 32.8555 48.1248 28.2197 48.1248 23.5C48.1248 18.7803 49.4016 14.1445 51.8257 10.0625" stroke="white" stroke-width="2.5" stroke-miterlimit="20" stroke-linecap="round"/>
</svg>
