<svg width="250" height="250" viewBox="0 0 250 250" fill="none" xmlns="http://www.w3.org/2000/svg">
<path d="M125 135.417C142.259 135.417 156.25 121.426 156.25 104.167C156.25 86.9078 142.259 72.9167 125 72.9167C107.741 72.9167 93.75 86.9078 93.75 104.167C93.75 121.426 107.741 135.417 125 135.417Z" stroke="black" stroke-linecap="round"/>
<path d="M125 218.75C176.777 218.75 218.75 176.777 218.75 125C218.75 73.2233 176.777 31.25 125 31.25C73.2233 31.25 31.25 73.2233 31.25 125C31.25 176.777 73.2233 218.75 125 218.75Z" stroke="black"/>
<path d="M187.5 194.854C183.813 183.781 175.688 173.99 164.385 167.01C153.094 160.031 139.24 156.25 125 156.25C110.76 156.25 96.9062 160.031 85.6146 167.01C74.3125 173.99 66.1875 183.781 62.5 194.854" stroke="black" stroke-linecap="round"/>
</svg>
