<svg width="250" height="250" viewBox="0 0 250 250" fill="none" xmlns="http://www.w3.org/2000/svg">
<path d="M126.302 153.323C88.8021 153.323 46.9271 183.823 46.9271 221.302M126.302 119.375C135.286 119.394 144.074 116.749 151.555 111.774C159.037 106.8 164.875 99.719 168.333 91.4271C170.92 85.2273 172.097 78.5305 171.779 71.8204C171.462 65.1103 169.659 58.5543 166.499 52.6261C163.34 46.6979 158.903 41.5453 153.51 37.5406C148.117 33.5358 141.901 30.7788 135.313 29.4687C128.725 28.1552 121.928 28.3185 115.412 29.9469C108.895 31.5753 102.821 34.6283 97.6254 38.886C92.4302 43.1438 88.2436 48.5005 85.367 54.5704C82.4904 60.6403 80.9954 67.2725 80.9896 73.9896C80.9868 86.0148 85.7576 97.5493 94.2538 106.059C102.75 114.569 114.277 119.358 126.302 119.375Z" stroke="black" stroke-width="1.5" stroke-linecap="round" stroke-linejoin="round"/>
<path d="M171.75 156.073V218.542M140.573 187.375H203.073" stroke="black" stroke-width="1.5" stroke-miterlimit="10" stroke-linecap="round"/>
</svg>
