<svg width="44" height="48" viewBox="0 0 44 48" fill="none" xmlns="http://www.w3.org/2000/svg">
<path d="M2 28.6667V19.7778C2 11.3978 2 7.20667 4.60444 4.60444C7.20667 2 11.3978 2 19.7778 2H24.2222C32.6022 2 36.7933 2 39.3956 4.60444C40.8489 6.05556 41.4911 8 41.7733 10.8889M42 19.7778V28.6667C42 37.0467 42 41.2378 39.3956 43.84C36.7933 46.4444 32.6022 46.4444 24.2222 46.4444H19.7778C11.3978 46.4444 7.20667 46.4444 4.60444 43.84C3.15111 42.3889 2.50889 40.4444 2.22667 37.5556M13.1111 28.6667H24.2222M13.1111 19.7778H15.3333M30.8889 19.7778H22" stroke="white" stroke-width="2.5" stroke-linecap="round"/>
</svg>
